<svg xmlns="http://www.w3.org/2000/svg" viewBox="0 0 13 10">
  <path d="m6.058 1.354.442.4.442-.4c.29-.263.634-.473 1.014-.617a3.413 3.413 0 0 1 2.398-.005c.38.142.726.351 1.017.614.29.263.521.576.679.92a2.59 2.59 0 0 1-.006 2.169 2.83 2.83 0 0 1-.683.917L6.942 9.348a.633.633 0 0 1-.202.123.683.683 0 0 1-.682-.123l-4.42-3.996a2.834 2.834 0 0 1-.693-.918 2.596 2.596 0 0 1-.25-1.088A2.592 2.592 0 0 1 .93 2.255c.157-.346.389-.66.681-.925A3.16 3.16 0 0 1 2.634.714a3.416 3.416 0 0 1 2.41.013c.38.147.726.36 1.014.628h.001Z"/>
</svg>