<svg viewBox="0 0 27 27" xmlns="http://www.w3.org/2000/svg">
<path d="M25.6652 3.52809H1.33482C1.24602 3.52809 1.16086 3.4837 1.09807 3.40468C1.03528 3.32566 1 3.21849 1 3.10674V1.42135C1 1.3096 1.03528 1.20243 1.09807 1.12341C1.16086 1.04439 1.24602 1 1.33482 1H25.6652C25.754 1 25.8391 1.04439 25.9019 1.12341C25.9647 1.20243 26 1.3096 26 1.42135V3.10674C26 3.21849 25.9647 3.32566 25.9019 3.40468C25.8391 3.4837 25.754 3.52809 25.6652 3.52809ZM25.6652 14.764H1.33482C1.24602 14.764 1.16086 14.7197 1.09807 14.6406C1.03528 14.5616 1 14.4544 1 14.3427V12.6573C1 12.5456 1.03528 12.4384 1.09807 12.3594C1.16086 12.2803 1.24602 12.236 1.33482 12.236H25.6652C25.754 12.236 25.8391 12.2803 25.9019 12.3594C25.9647 12.4384 26 12.5456 26 12.6573V14.3427C26 14.4544 25.9647 14.5616 25.9019 14.6406C25.8391 14.7197 25.754 14.764 25.6652 14.764ZM25.6652 26H1.33482C1.24602 26 1.16086 25.9556 1.09807 25.8766C1.03528 25.7976 1 25.6904 1 25.5787V23.8933C1 23.7815 1.03528 23.6743 1.09807 23.5953C1.16086 23.5163 1.24602 23.4719 1.33482 23.4719H25.6652C25.754 23.4719 25.8391 23.5163 25.9019 23.5953C25.9647 23.6743 26 23.7815 26 23.8933V25.5787C26 25.6904 25.9647 25.7976 25.9019 25.8766C25.8391 25.9556 25.754 26 25.6652 26Z" />
</svg>
