<svg xmlns="http://www.w3.org/2000/svg" viewBox="0 0 19 20">
  <path d="m4.634 11.453 5.36 5.642c.242.27.373.63.368 1-.006.37-.149.725-.398.987-.25.262-.586.412-.938.418a1.32 1.32 0 0 1-.95-.387L.399 11.035a1.43 1.43 0 0 1-.295-.463 1.489 1.489 0 0 1 0-1.094 1.43 1.43 0 0 1 .295-.463L8.076.936C8.2.8 8.35.691 8.516.616a1.3 1.3 0 0 1 1.05-.01c.167.072.318.178.445.312.128.134.229.294.297.47a1.494 1.494 0 0 1-.01 1.104 1.432 1.432 0 0 1-.303.464l-5.36 5.641h13.008c.36 0 .705.15.96.418.254.268.397.631.397 1.01s-.143.742-.398 1.01c-.254.268-.6.418-.959.418H4.634Z"/>
</svg>
