<svg width="20" height="20" viewBox="0 0 20 20" fill="none" xmlns="http://www.w3.org/2000/svg">
<path d="M15.7143 5H20V16.875C20 17.7344 19.6429 18.4635 18.9286 19.0625C18.244 19.6875 17.4107 20 16.4286 20H3.57143C2.58929 20 1.74107 19.6875 1.02679 19.0625C0.342263 18.4635 0 17.7344 0 16.875V5H4.28571C4.28571 3.61979 4.83631 2.44792 5.9375 1.48438C7.06846 0.49479 8.42262 0 10 0C11.5774 0 12.9167 0.49479 14.0178 1.48438C15.1488 2.44792 15.7143 3.61979 15.7143 5ZM12.5 2.8125C11.8154 2.1875 10.9822 1.875 10 1.875C9.01783 1.875 8.16965 2.1875 7.45536 2.8125C6.77084 3.41146 6.42857 4.14062 6.42857 5H13.5714C13.5714 4.14062 13.2143 3.41146 12.5 2.8125ZM17.8571 16.875V6.875H15.7143V8.4375C15.7143 8.69792 15.6102 8.91927 15.4018 9.1016C15.1935 9.2839 14.9405 9.375 14.6429 9.375C14.3453 9.375 14.0922 9.2839 13.8839 9.1016C13.6755 8.91927 13.5714 8.69792 13.5714 8.4375V6.875H6.42857V8.4375C6.42857 8.69792 6.3244 8.91927 6.11607 9.1016C5.90774 9.2839 5.65477 9.375 5.35714 9.375C5.05952 9.375 4.80655 9.2839 4.59822 9.1016C4.38989 8.91927 4.28571 8.69792 4.28571 8.4375V6.875H2.14286V16.875C2.14286 17.2135 2.27679 17.5 2.54464 17.7344C2.84226 17.9948 3.18453 18.125 3.57143 18.125H16.4286C16.8154 18.125 17.1429 17.9948 17.4107 17.7344C17.7083 17.5 17.8571 17.2135 17.8571 16.875Z" fill="black"/>
</svg>
