<svg xmlns="http://www.w3.org/2000/svg" viewBox="0 0 20 20">
  <path d="M14.722 5c.232 0 .428.122.59.365.163.243.244.538.244.885v7.5c0 .347-.081.642-.243.885-.163.244-.36.365-.59.365H5.277c-.232 0-.428-.121-.59-.365-.163-.243-.244-.538-.244-.885v-7.5c0-.347.081-.642.244-.885.162-.243.358-.365.59-.365h9.444Zm-.278 8.333V6.667H5.556v6.666h8.888Zm4.445-5c-.301 0-.567.174-.799.521-.208.313-.312.695-.312 1.146 0 .451.104.85.312 1.198.232.312.498.469.799.469H20V17.5c0 .694-.162 1.285-.486 1.77-.324.487-.718.73-1.18.73H1.666c-.463 0-.857-.243-1.18-.73C.161 18.786 0 18.195 0 17.5v-5.833h1.111c.301 0 .556-.157.764-.47A2.11 2.11 0 0 0 2.222 10c0-.451-.116-.833-.347-1.146-.208-.347-.463-.52-.764-.52H0V2.5C0 1.806.162 1.215.486.73.81.242 1.204 0 1.666 0h16.667c.463 0 .857.243 1.18.73.325.485.487 1.076.487 1.77v5.833h-1.111Zm0 5c-.602 0-1.123-.33-1.563-.99-.44-.659-.66-1.44-.66-2.343s.22-1.684.66-2.344c.44-.66.961-.99 1.563-.99V2.5c0-.243-.058-.434-.174-.573-.092-.174-.22-.26-.382-.26H1.667c-.162 0-.301.086-.417.26-.093.139-.139.33-.139.573v4.167c.602 0 1.123.33 1.563.99.44.659.66 1.44.66 2.343s-.22 1.684-.66 2.344c-.44.66-.961.99-1.563.99V17.5c0 .243.046.451.139.625a.526.526 0 0 0 .417.208h16.666c.162 0 .29-.07.382-.208a1.1 1.1 0 0 0 .174-.625v-4.167Z"/>
</svg>
