<svg xmlns="http://www.w3.org/2000/svg" viewBox="0 0 13 12">
  <path d="M5.875 2.044v-.566a.54.54 0 0 1 .183-.4A.66.66 0 0 1 6.5.914a.66.66 0 0 1 .442.166.54.54 0 0 1 .183.4v.565H9v-.566a.54.54 0 0 1 .183-.4.66.66 0 0 1 .442-.165.66.66 0 0 1 .442.166c.117.106.183.25.183.4v.565h.625c.497 0 .974.178 1.326.496.351.318.549.75.549 1.2V9.39c0 .45-.197.881-.55 1.2a1.98 1.98 0 0 1-1.325.496h-8.75a1.98 1.98 0 0 1-1.326-.497A1.618 1.618 0 0 1 .25 9.391V3.74c0-.45.198-.88.55-1.199a1.98 1.98 0 0 1 1.325-.496h.625v-.566a.54.54 0 0 1 .183-.4.66.66 0 0 1 .442-.165.66.66 0 0 1 .442.166.54.54 0 0 1 .183.4v.565h1.875Zm0 1.13H4v.565a.54.54 0 0 1-.183.4.66.66 0 0 1-.442.165.66.66 0 0 1-.442-.165.54.54 0 0 1-.183-.4v-.565h-.625a.66.66 0 0 0-.442.165.54.54 0 0 0-.183.4v5.652c0 .15.066.294.183.4a.66.66 0 0 0 .442.166h8.75a.66.66 0 0 0 .442-.166.539.539 0 0 0 .183-.4V3.74a.539.539 0 0 0-.183-.4.66.66 0 0 0-.442-.165h-.625v.565c0 .15-.066.294-.183.4a.66.66 0 0 1-.442.165.66.66 0 0 1-.442-.165.54.54 0 0 1-.183-.4v-.565H7.125v.565a.54.54 0 0 1-.183.4.66.66 0 0 1-.442.165.66.66 0 0 1-.442-.165.54.54 0 0 1-.183-.4v-.565Zm-3.75 2.26h1.25v1.131h-1.25v-1.13Zm0 2.262h1.25v1.13h-1.25v-1.13Zm7.5 0h1.25v1.13h-1.25v-1.13Zm0-2.261h1.25v1.13h-1.25v-1.13Zm-5 0h1.25v1.13h-1.25v-1.13Zm2.5 0h1.25v1.13h-1.25v-1.13Zm0 2.26h1.25v1.131h-1.25v-1.13Zm-2.5 0h1.25v1.131h-1.25v-1.13Z"/>
</svg>