<svg xmlns="http://www.w3.org/2000/svg" viewBox="0 0 17 22">
  <path d="M3.292.583h10.416a3.125 3.125 0 0 1 3.125 3.125v14.584a3.125 3.125 0 0 1-3.125 3.125H3.292a3.125 3.125 0 0 1-3.125-3.125V3.708A3.125 3.125 0 0 1 3.292.583Zm8.333 2.084a1.042 1.042 0 1 0 0 2.083h2.083a1.042 1.042 0 0 0 0-2.083h-2.083ZM3.292 9.958a1.041 1.041 0 1 0 0 2.084h10.416a1.042 1.042 0 1 0 0-2.084H3.292Zm0 3.125a1.041 1.041 0 1 0 0 2.084h10.416a1.042 1.042 0 1 0 0-2.084H3.292Zm0 3.125a1.041 1.041 0 1 0 0 2.084H8.5a1.041 1.041 0 1 0 0-2.084H3.292Zm8.333-10.416a1.042 1.042 0 1 0 0 2.083h2.083a1.042 1.042 0 0 0 0-2.083h-2.083ZM3.292 2.667A1.042 1.042 0 0 0 2.25 3.708v3.125a1.042 1.042 0 0 0 1.042 1.042H8.5a1.042 1.042 0 0 0 1.042-1.042V3.708A1.042 1.042 0 0 0 8.5 2.667H3.292Z"/>
</svg>
