<svg xmlns="http://www.w3.org/2000/svg" viewBox="0 0 10 12">
  <path d="M2.759 5.338h3.526c.082 0 .163.014.24.043.075.028.144.07.202.122a.565.565 0 0 1 .135.183.519.519 0 0 1 0 .433.565.565 0 0 1-.135.183.633.633 0 0 1-.203.123.683.683 0 0 1-.239.043H2.759l.701.634a.54.54 0 0 1 .183.4.54.54 0 0 1-.183.4.66.66 0 0 1-.442.165.66.66 0 0 1-.442-.166L.808 6.303a.564.564 0 0 1-.136-.183.517.517 0 0 1 0-.434.564.564 0 0 1 .136-.183l1.767-1.598a.66.66 0 0 1 .442-.166.66.66 0 0 1 .442.165.54.54 0 0 1 .183.4.54.54 0 0 1-.183.4l-.7.634ZM8.75.913a.66.66 0 0 1 .442.166.54.54 0 0 1 .183.4v9.043a.54.54 0 0 1-.183.4.66.66 0 0 1-.442.165.66.66 0 0 1-.442-.166.54.54 0 0 1-.183-.4V1.479a.54.54 0 0 1 .183-.4.66.66 0 0 1 .442-.165Z"/>
</svg>