<svg xmlns="http://www.w3.org/2000/svg" viewBox="0 0 13 12">
  <path d="m7.384 6 1.768-1.598a.54.54 0 0 0 .183-.4.54.54 0 0 0-.183-.4.66.66 0 0 0-.442-.166.66.66 0 0 0-.443.166L6.5 5.2 4.732 3.6a.66.66 0 0 0-.442-.165.66.66 0 0 0-.442.166.54.54 0 0 0-.183.4c0 .15.066.293.183.4L5.616 6 3.848 7.598a.54.54 0 0 0-.183.4c0 .15.066.294.183.4a.66.66 0 0 0 .442.166.66.66 0 0 0 .442-.166L6.5 6.8l1.768 1.6a.66.66 0 0 0 .442.165.66.66 0 0 0 .442-.166.54.54 0 0 0 .183-.4.54.54 0 0 0-.183-.4L7.384 6ZM6.5 11.652C3.048 11.652.25 9.122.25 6 .25 2.878 3.048.348 6.5.348S12.75 2.878 12.75 6c0 3.122-2.798 5.652-6.25 5.652Z"/>
</svg>