<svg width="25" height="25" viewBox="0 0 25 25" fill="none" xmlns="http://www.w3.org/2000/svg">
<path d="M24.7806 22.878C25.0731 23.1382 25.0731 23.4146 24.7806 23.7074L23.7074 24.7806C23.4146 25.0731 23.1382 25.0731 22.878 24.7806L16.9757 18.8781C16.8456 18.7479 16.7805 18.6179 16.7805 18.4878V17.8049C14.8617 19.4634 12.6504 20.2927 10.1463 20.2927C7.3496 20.2927 4.95935 19.3008 2.97561 17.3171C0.991869 15.3333 0 12.9431 0 10.1463C0 7.3496 0.991869 4.95935 2.97561 2.97561C4.95935 0.991869 7.3496 0 10.1463 0C12.9431 0 15.3333 0.991869 17.3171 2.97561C19.3008 4.95935 20.2927 7.3496 20.2927 10.1463C20.2927 12.6504 19.4634 14.8617 17.8049 16.7805H18.4878C18.6504 16.7805 18.7805 16.8456 18.8781 16.9757L24.7806 22.878ZM4.63415 15.6586C6.16261 17.187 8 17.9512 10.1463 17.9512C12.2927 17.9512 14.1301 17.187 15.6586 15.6586C17.187 14.1301 17.9512 12.2927 17.9512 10.1463C17.9512 8 17.187 6.16261 15.6586 4.63415C14.1301 3.10569 12.2927 2.34146 10.1463 2.34146C8 2.34146 6.16261 3.10569 4.63415 4.63415C3.10569 6.16261 2.34146 8 2.34146 10.1463C2.34146 12.2927 3.10569 14.1301 4.63415 15.6586Z" fill="black"/>
</svg>
