<svg xmlns="http://www.w3.org/2000/svg" viewBox="0 0 27 27">
  <path d="M13.5 24.75c-6.213 0-11.25-5.037-11.25-11.25S7.287 2.25 13.5 2.25 24.75 7.287 24.75 13.5 19.713 24.75 13.5 24.75Zm0-2.25a9 9 0 1 0 0-18 9 9 0 0 0 0 18Zm0-15.75a4.5 4.5 0 0 1 4.5 4.5v2.25a4.5 4.5 0 1 1-9 0v-2.25a4.5 4.5 0 0 1 4.5-4.5Zm0 2.25a2.25 2.25 0 0 0-2.25 2.25v2.25a2.25 2.25 0 0 0 4.5 0v-2.25A2.25 2.25 0 0 0 13.5 9ZM8.899 21.235A9.036 9.036 0 0 1 7.12 19.85a6.266 6.266 0 0 1 2.48-1.77 1.124 1.124 0 1 1 .824 2.092 4.036 4.036 0 0 0-1.527 1.064Zm9.162.025a4.107 4.107 0 0 0-1.587-1.084 1.126 1.126 0 1 1 .802-2.102c.994.378 1.877 1 2.569 1.808a9.035 9.035 0 0 1-1.784 1.378Z"/>
</svg>
