<svg xmlns="http://www.w3.org/2000/svg" viewBox="0 0 13 8">
  <path d="M6.5 7.391C3.349 7.395.25 5.873.25 4S3.365.6 6.5.609C9.635.619 12.75 2.127 12.75 4S9.651 7.387 6.5 7.391Zm0-1.13a2.64 2.64 0 0 0 1.768-.662C8.737 5.175 9 4.599 9 4c0-.6-.263-1.175-.732-1.599A2.64 2.64 0 0 0 6.5 1.74a2.64 2.64 0 0 0-1.768.662A2.157 2.157 0 0 0 4 4c0 .6.263 1.175.732 1.599A2.64 2.64 0 0 0 6.5 6.26Zm0-1.13c-.332 0-.65-.12-.884-.332A1.079 1.079 0 0 1 5.25 4c0-.3.132-.587.366-.8a1.32 1.32 0 0 1 .884-.33c.332 0 .65.119.884.33.234.213.366.5.366.8 0 .3-.132.587-.366.8a1.32 1.32 0 0 1-.884.33Z"/>
</svg>
