<svg width="24" height="24" viewBox="0 0 24 24" fill="none" xmlns="http://www.w3.org/2000/svg">
<path d="M11.516 2.01194C6.206 2.26194 2.017 6.65194 2.033 11.9289C2.03564 13.4822 2.40753 15.0127 3.118 16.3939L2.06 21.4949C2.0471 21.5587 2.05048 21.6247 2.06983 21.6868C2.08919 21.749 2.1239 21.8052 2.17075 21.8504C2.2176 21.8955 2.27508 21.9281 2.33787 21.9452C2.40067 21.9622 2.46675 21.9632 2.53 21.9479L7.564 20.7639C8.89729 21.4228 10.361 21.7754 11.848 21.7959C17.275 21.8789 21.799 17.6009 21.968 12.2159C22.15 6.44094 17.351 1.73494 11.516 2.01094V2.01194ZM17.523 17.3789C16.7975 18.1019 15.9364 18.6745 14.9892 19.064C14.042 19.4536 13.0272 19.6523 12.003 19.6489C10.798 19.6526 9.60869 19.376 8.529 18.8409L7.828 18.4939L4.741 19.2199L5.391 16.0889L5.045 15.4169C4.4841 14.3297 4.19324 13.1234 4.197 11.8999C4.197 9.82994 5.009 7.88294 6.483 6.41994C7.9522 4.96564 9.93576 4.14958 12.003 4.14894C14.089 4.14894 16.049 4.95494 17.523 6.41894C18.2492 7.13458 18.8255 7.98779 19.2182 8.92871C19.6109 9.86962 19.8121 10.8794 19.81 11.8989C19.81 13.9509 18.985 15.9289 17.523 17.3799V17.3789Z" fill="white"/>
<path d="M16.8419 14.045L14.9109 13.495C14.7863 13.4592 14.6544 13.4576 14.5289 13.4903C14.4035 13.5231 14.2891 13.5889 14.1979 13.681L13.7259 14.159C13.6282 14.2579 13.5036 14.3259 13.3675 14.3543C13.2314 14.3828 13.09 14.3705 12.9609 14.319C12.0479 13.952 10.1259 12.256 9.63489 11.407C9.56607 11.2871 9.53462 11.1493 9.5446 11.0114C9.55458 10.8735 9.60552 10.7418 9.69089 10.633L10.1029 10.103C10.1822 10.0015 10.2324 9.88023 10.2481 9.75234C10.2638 9.62445 10.2443 9.4947 10.1919 9.377L9.37989 7.553C9.33397 7.45105 9.26502 7.36114 9.17848 7.29034C9.09193 7.21954 8.99014 7.16979 8.88111 7.14498C8.77209 7.12017 8.65879 7.12098 8.55013 7.14736C8.44147 7.17374 8.34041 7.22496 8.25489 7.297C7.71589 7.75 7.07589 8.437 6.99889 9.2C6.86189 10.543 7.44189 12.236 9.63589 14.27C12.1709 16.619 14.2019 16.93 15.5229 16.611C16.2729 16.431 16.8729 15.708 17.2499 15.117C17.3102 15.0231 17.3476 14.9164 17.3592 14.8054C17.3707 14.6945 17.356 14.5823 17.3163 14.4781C17.2767 14.3738 17.2131 14.2803 17.1307 14.2051C17.0483 14.1299 16.9493 14.075 16.8419 14.045V14.045Z" fill="white"/>
</svg>
